<?xml version="1.0" encoding="UTF-8"?>
<svg class="contrast-icon" xmlns="http://www.w3.org/2000/svg" width="24" height="24" fill="currentColor"
     viewBox="0 0 24 24">
  <path
    d="M12 2a1 1 0 0 1 .993.883L13 3v1a1 1 0 0 1-1.993.117L11 4V3a1 1 0 0 1 1-1zm5.657 3.343a1 1 0 0 1 1.32-.083l.094.083 0.707 0.707a1 1 0 0 1-1.32 1.497l-.094-.083-0.707-.707a1 1 0 0 1 0-1.414zm4.343 6.657a1 1 0 0 1 .117 1.993L22 14h-1a1 1 0 0 1-.117-1.993L21 12h1zM12 18a6 6 0 1 0 0-12v12zm-1 4a1 1 0 0 1-1-1v-1a1 1 0 0 1 1.993-.117L12 20v1a1 1 0 0 1-1 1zm-7.071-3.071a1 1 0 0 1 1.32-1.497l.094.083 0.707.707a1 1 0 0 1-1.32 1.497l-.094-.083-0.707-.707zm-.929-6.929a1 1 0 0 1 .117 1.993L4 14H3a1 1 0 0 1-.117-1.993L3 12h1zm1.636-6.364a1 1 0 0 1 1.32 1.497l-.094.083-0.707.707a1 1 0 0 1-1.497-1.32l.083-.094.707-.707z" />
</svg>
